<svg xmlns="http://www.w3.org/2000/svg"><symbol id="icon-arrow" viewBox="0 0 61 11"><path fill-rule="evenodd" clip-rule="evenodd" d="M50.46 3.815V.635l10 5-10 5v-3.64h-50v-3.18h50z" fill="#fff"/></symbol><symbol id="icon-garbage" viewBox="0 0 36 36"><path d="M21.43 14.93a.527.527 0 00.525-.527v-2.904a.527.527 0 00-.526-.526h-5.353V8.705a.526.526 0 00-.527-.527H6.406a.526.526 0 00-.526.527v2.268H.526a.527.527 0 00-.526.526v2.904a.527.527 0 00.526.526h.855L2.47 35.15a.527.527 0 00.526.498H18.96a.527.527 0 00.526-.498l1.089-20.22h.854zM6.932 9.23h8.09v1.743h-8.09V9.23zm-5.88 2.795h19.85v1.852H1.053v-1.852zM18.46 34.594H3.494L2.435 14.929H19.52l-1.059 19.665z" fill="#3D6AEB"/><path d="M6.996 29.516a.527.527 0 00.526-.527v-9.68a.526.526 0 10-1.052 0v9.68a.526.526 0 00.526.527zm3.981 0a.527.527 0 00.527-.527v-9.68a.526.526 0 10-1.053 0v9.68a.527.527 0 00.526.527zm3.982 0a.526.526 0 00.526-.527v-9.68a.526.526 0 00-1.052 0v9.68a.527.527 0 00.526.527zM29.727 16.95c1.247-1.785 2.548-3.907 2.322-4.707a1.149 1.149 0 00-.83-.828 2.071 2.071 0 00-1.792.496c-.41.346-.914.561-1.447.618a2.686 2.686 0 01-1.447-.618 2.07 2.07 0 00-1.792-.496 1.15 1.15 0 00-.83.828c-.225.8 1.075 2.922 2.322 4.707-2.045 1.737-5.914 5.999-5.914 13.384v.04l.002.037a5.457 5.457 0 005.475 5.236h4.37a5.454 5.454 0 005.47-5.235l.002-.038v-.039c.002-7.386-3.865-11.648-5.911-13.384zm-4.711-4.519a1.062 1.062 0 01.787.238 3.705 3.705 0 002.177.912 3.706 3.706 0 002.178-.912 1.063 1.063 0 01.786-.238.1.1 0 01.085.077c-.012.477-1.157 2.4-2.288 4.014H27.22c-1.131-1.613-2.276-3.536-2.288-4.014a.1.1 0 01.085-.077zm9.566 17.992a4.404 4.404 0 01-4.416 4.17h-4.37a4.41 4.41 0 01-4.42-4.185l-.004-.085c.004-6.832 3.503-10.806 5.44-12.481-.67 1.848-1.451 4.53-1.322 6.707a.526.526 0 00.525.496h.032a.526.526 0 00.495-.558c-.137-2.299.902-5.367 1.485-6.887a20.674 20.674 0 011.243 5.497.527.527 0 001.048-.085 22.573 22.573 0 00-1.034-5.05c1.96 1.741 5.3 5.689 5.304 12.363l-.006.098z" fill="#3D6AEB"/><path d="M23.715 8.226a.527.527 0 001.04.153c.019-.12.42-2.956-.747-4.541-.982-1.332-.993-1.99-.052-2.933a.526.526 0 10-.745-.744c-1.628 1.631-.987 3.031-.051 4.3.91 1.236.558 3.741.555 3.765zm3.408 0a.527.527 0 001.043.153c.017-.12.419-2.956-.749-4.541-.98-1.332-.992-1.99-.051-2.933A.528.528 0 0026.62.16c-1.628 1.631-.987 3.031-.052 4.3.91 1.236.559 3.741.555 3.765zm3.409 0a.525.525 0 00.865.475.526.526 0 00.176-.322c.018-.12.42-2.956-.748-4.541-.981-1.332-.993-1.99-.052-2.933A.526.526 0 1030.03.16c-1.628 1.631-.987 3.031-.052 4.3.91 1.236.559 3.741.555 3.765z" fill="#F25929"/></symbol><symbol id="icon-hand" viewBox="0 0 28 33"><path d="M26.995 13.21l.363-.363a.513.513 0 10-.726-.726l-.363.363-.363-.363a.513.513 0 00-.726.726l.363.363-.363.363a.513.513 0 00.726.725l.363-.363.363.363a.511.511 0 00.726 0c.2-.2.2-.525 0-.725l-.363-.363zm-4.319 6.16a.513.513 0 100-1.027.513.513 0 000 1.026zm3.13-13.505a1.586 1.586 0 00-2.911-.288c-.2.373-.242.802-.12 1.206A1.586 1.586 0 0024.75 7.84a1.585 1.585 0 001.056-1.974zm-1.354.992a.557.557 0 11-.322-1.066.557.557 0 01.322 1.066z" fill="#EF8C6E"/><path d="M18.833 10.203c-.498-.299-1.059-.387-1.579-.247a1.933 1.933 0 00-1.187.952c-.323.585-.913 1.356-1.454 2.018l1.585-9.24c.103-.824-.363-1.614-1.165-1.935a1.877 1.877 0 00-2.546 1.389c-.23 1.213-.56 2.87-.868 4.398l-.264-5.857C11.315.738 10.544 0 9.57 0a1.8 1.8 0 00-1.802 1.793v5.392l-1.142-4.34a1.653 1.653 0 00-.921-1.09 1.652 1.652 0 00-1.427.028 1.656 1.656 0 00-.9 1.734l.887 5.836-1.058-1.94a1.72 1.72 0 00-2.284-.701C.167 7.1-.186 7.967.097 8.812l2.34 5.485c.222.666.4 1.352.527 2.04l.685 3.684c.213 1.143.515 2.306 1.587 3.003l-1.022 3.915a.513.513 0 00.496.643h1.027v4.106a.513.513 0 001.026 0v-4.106h5.133v4.106a.513.513 0 001.027 0v-4.106h1.026a.513.513 0 00.496-.648l-.96-3.537a3.03 3.03 0 001.569-1.571l4.245-9.276c.466-1.093.309-1.882-.466-2.347zm-.473 1.932l-4.245 9.276a2.016 2.016 0 01-1.373 1.159.512.512 0 00-.373.633l.91 3.352H5.375L6.33 22.9a.513.513 0 00-.277-.594c-.862-.407-1.155-1.183-1.394-2.473l-.685-3.683a16.263 16.263 0 00-.578-2.217l-2.34-5.485a.68.68 0 01.336-.824.687.687 0 01.912.28l2.454 4.499a.514.514 0 00.958-.323L4.393 3.363a.631.631 0 01.888-.672c.174.08.302.23.351.416l2.152 8.176a.513.513 0 001.01-.13v-9.36c0-.422.347-.766.807-.766.392 0 .712.307.729.699l.45 10.01a.514.514 0 001.016.08c.011-.055 1.143-5.556 1.7-8.485a.843.843 0 01.425-.584.871.871 0 01.763-.03c.337.135.54.48.5.818L13.32 14.392c-.184.135-.372.268-.566.404-.72.497-1.462 1.012-1.984 1.708l-.091.121a.513.513 0 10.82.617l.092-.122c.422-.563 1.096-1.03 1.747-1.48.249-.173.494-.343.723-.515.11-.083.215-.2.322-.345.538-.607 1.963-2.254 2.582-3.376a.903.903 0 01.556-.457c.248-.067.526-.018.784.136.17.102.4.24.055 1.052z" fill="#3D6AEB"/></symbol><symbol id="icon-home" viewBox="0 0 37 37"><path d="M31.881 9.877V2.406a.602.602 0 00-.602-.602h-4.812a.602.602 0 00-.601.602V5.52L18.399.114a.602.602 0 00-.706 0L.249 12.746a.601.601 0 00.353 1.089h2.406v21.654c0 .333.27.602.602.602h28.873c.332 0 .601-.27.601-.602V13.835h2.406a.6.6 0 00.353-1.089l-3.962-2.87zm-4.812-6.87h3.609v5.999l-3.61-2.614V3.007zm5.414 9.625h-3.61v1.203h3.008v21.053H14.493a4.79 4.79 0 002.093-.492 4.781 4.781 0 002.435-2.764l1.168-3.414.195-.57a3.583 3.583 0 00-.174-2.756 3.574 3.574 0 00-1.523-1.576l4.886-14.284.39-1.138a1.807 1.807 0 00-1.123-2.292 1.807 1.807 0 00-2.292 1.123l-.39 1.139-4.884 14.278a3.582 3.582 0 00-2.17.32 3.585 3.585 0 00-1.827 2.071l-.195.57-1.168 3.414a3.699 3.699 0 01-.201.477l1.07.546a4.81 4.81 0 00.27-.634l.973-2.845 2.276.779-.584 1.707 1.139.39.584-1.708 1.138.389-1.168 3.415a3.01 3.01 0 01-3.817 1.872l-3.255-1.113a4.795 4.795 0 001.608-1.085l-.862-.84a3.63 3.63 0 01-3.754.896.602.602 0 10-.389 1.139l6.26 2.141.003.001 1.705.584a4.825 4.825 0 001.548.26H4.211V13.835H7.22v-1.203H2.46L18.045 1.344l15.588 11.288h-1.151zm-20.066 12.29a2.408 2.408 0 013.055-1.497l2.277.779a2.39 2.39 0 011.382 1.217 2.39 2.39 0 01.116 1.838l-6.83-2.336zm4.013-2.441l4.673-13.66 1.138.39-4.672 13.66-.57-.196-.569-.194zm6.395-14.977l-.194.569-1.139-.39.194-.568a.602.602 0 011.139.39zm-3.968 20.893l-.973 2.845a3.587 3.587 0 01-1.826 2.073 3.602 3.602 0 01-1.367.363 4.181 4.181 0 001.86-2.255l1.168-3.415 1.138.389z" fill="#3D6AEB"/><path d="M12.94 30.836l.39-1.138 1.138.39-.39 1.137-1.138-.39zm12.325-12.791h1.203v1.203h-1.203v-1.203zm1.203 1.203h1.203v1.203h-1.203v-1.203zm-1.203 1.203h1.203v1.203h-1.203v-1.203zm-1.204-1.203h1.204v1.203H24.06v-1.203zm-12.03-7.819h1.203v1.203h-1.203v-1.203zm1.203 1.203h1.203v1.203h-1.203v-1.203zm-1.203 1.203h1.203v1.203h-1.203v-1.203zm-1.203-1.203h1.203v1.203h-1.203v-1.203z" fill="#F25929"/></symbol><symbol id="icon-office" viewBox="0 0 36 36"><path d="M32.382 18.122l-2.892-1.625-2.298-1.294v-.998a7.698 7.698 0 002.07-2.706 2.49 2.49 0 002.267-2.398 2.434 2.434 0 00-1.523-2.202C29.592 3.018 26.672 0 23.141 0s-6.45 3.018-6.865 6.9a2.425 2.425 0 00-1.524 2.201 2.492 2.492 0 002.268 2.398 7.699 7.699 0 002.072 2.707v.997l-5.2 2.924a6.576 6.576 0 00-3.251 5.657v1.797l-1.37-3.836a.526.526 0 00-.496-.35H7.772v-.382h.194a.525.525 0 00.526-.526v-2.346a2.206 2.206 0 00-.932-1.798v-.869l1.313-.68c.122.34.158.705.104 1.062a.526.526 0 001.028.226 3.25 3.25 0 00-.195-1.774l.451-.234h1.313a.523.523 0 00.526-.527v-1.441a.526.526 0 00-.526-.527H10.13l-.02.002h-.02l-6.194.466a2.936 2.936 0 00-2.248 1.329L.686 14.87a.527.527 0 00.442.812h3.414v.66a2.205 2.205 0 00-.933 1.798v2.346a.526.526 0 00.527.526h.195v.383H3.327a.527.527 0 00-.495.349L.29 28.859a4.979 4.979 0 004.69 6.655h2.142a4.97 4.97 0 003.52-1.46v.932a.526.526 0 00.526.527h23.946a.526.526 0 00.526-.527V23.784a6.582 6.582 0 00-3.258-5.662zm-6.056-1.204v3.407h-6.367V16.93c.21.163.434.308.668.435a5.69 5.69 0 002.514.72 5.765 5.765 0 003.185-1.167zm-8.747 3.407v-3.063l1.327-.747v3.81H17.58zm9.148 14.135h-7.171v-3.654h7.17v3.654zm1.052 0v-4.18a.527.527 0 00-.526-.527H19.03a.528.528 0 00-.526.527v4.18H16.64l.906-13.083H28.74l.905 13.083H27.78zm.926-14.135h-1.327v-3.808l1.327.746v3.062zm1.016-10.057a8.775 8.775 0 00.331-2.1 1.294 1.294 0 01.424.933 1.34 1.34 0 01-.755 1.167zm-6.58-9.215c2.82 0 5.18 2.318 5.74 5.395-.868-.221-2.325-.789-2.813-2.163a.526.526 0 00-.992 0c-.457 1.287-4.575 2.063-7.69 2.26.527-3.126 2.907-5.492 5.755-5.492zM15.805 9.1a1.288 1.288 0 01.426-.935 8.75 8.75 0 00.33 2.103 1.342 1.342 0 01-.756-1.168zm1.471-1.252c0-.082.003-.163.006-.244 1.796-.1 6.466-.514 8.21-2.135.953 1.426 2.688 1.925 3.507 2.085.003.098.006.195.006.294 0 3.747-2.631 6.797-5.865 6.797-3.233 0-5.864-3.05-5.864-6.797zm5.865 7.85a6.211 6.211 0 002.998-.777v.591c0 .477-1.71 1.519-2.998 1.519a4.658 4.658 0 01-2.01-.591c-.724-.395-.986-.771-.986-.93v-.589a6.211 6.211 0 002.996.775v.001zM4.662 19.96v-1.82a1.157 1.157 0 011.158-1.156h.465a1.157 1.157 0 011.156 1.155v1.82H4.662zm5.997-7.33h.391v.392h-.39v-.391zm-5.591 2H2.095l.44-.683a1.88 1.88 0 011.441-.85l5.63-.423v.556l-2.813 1.459a.526.526 0 00-.284.467v.788a2.218 2.218 0 00-.225-.011H5.82c-.076 0-.15.004-.224.01v-.787a.526.526 0 00-.528-.526zm.316 6.384h1.335v.382H5.384v-.382zm-1.685 1.435h4.705l1.01 2.827H2.688L3.7 22.448zm-1.385 3.88H9.79l.889 2.489.005.015.137.382c.156.439.233.902.227 1.368H1.054a3.913 3.913 0 01.228-1.368l1.032-2.886zm4.81 8.134H4.98a3.92 3.92 0 01-3.767-2.827h9.676c-.054.187-.122.37-.203.546l-.004.009a3.921 3.921 0 01-3.56 2.271h.002zm4.571-1.955c.18-.412.302-.847.359-1.293v-.005a4.96 4.96 0 00-.24-2.35l-.119-.331v-4.744a5.517 5.517 0 012.721-4.744l2.11-1.188v2.963l-.944 13.646h-3.888l.001-1.954zm22.894 1.955h-3.888l-.944-13.625v-2.982l2.102 1.18a5.52 5.52 0 012.728 4.749l.002 10.678z" fill="#3D6AEB"/><path d="M19.524 22.668a.902.902 0 100 1.803.902.902 0 000-1.803zm7.234 0a.902.902 0 100 1.803.902.902 0 000-1.803z" fill="#F25929"/></symbol><symbol id="icon-party" viewBox="0 0 37 37"><path d="M23.464 6.01a12.519 12.519 0 00-8.415 3.237 8.414 8.414 0 10-3.666 13.052c.17.56.381 1.106.63 1.636a6.608 6.608 0 1010.017 7.23A12.618 12.618 0 1023.464 6.01zm-22.24 8.416a7.2 7.2 0 0112.964-4.328 12.522 12.522 0 00-3.094 11.024 7.193 7.193 0 01-9.87-6.697zM15.65 34.861a5.41 5.41 0 110-10.82 5.41 5.41 0 010 10.82zm7.814-4.809c-.41-.003-.82-.028-1.228-.075.014-.174.026-.348.026-.526a6.612 6.612 0 00-9.188-6.089 11.164 11.164 0 01-.704-2.017 11.495 11.495 0 01-.326-2.713c0-6.307 5.113-11.42 11.42-11.42 6.308 0 11.42 5.113 11.42 11.42 0 6.307-5.112 11.42-11.42 11.42z" fill="#3D6AEB"/><path d="M5.433 27.048a.601.601 0 00-1.203 0c0 .996-.807 1.803-1.803 1.803a.601.601 0 100 1.202c.996 0 1.803.808 1.803 1.804a.601.601 0 001.203 0c0-.996.807-1.804 1.803-1.804a.601.601 0 000-1.202 1.803 1.803 0 01-1.803-1.803zm-.601 3.024a2.998 2.998 0 00-.62-.62c.236-.175.445-.384.62-.62.175.236.383.445.62.62a2.999 2.999 0 00-.62.62zM29.475 5.41a.601.601 0 101.202 0c0-.996.808-1.804 1.803-1.804a.601.601 0 000-1.202A1.803 1.803 0 0130.677.601a.601.601 0 00-1.202 0c0 .996-.807 1.803-1.803 1.803a.601.601 0 100 1.202c.996 0 1.803.808 1.803 1.804zm.601-3.024c.175.235.384.444.62.62a2.997 2.997 0 00-.62.62 2.997 2.997 0 00-.62-.62c.236-.176.445-.385.62-.62z" fill="#F25929"/><path d="M31.278 18.633a1.803 1.803 0 01-1.803-1.803.601.601 0 00-1.202 0c0 .996-.808 1.803-1.803 1.803a.601.601 0 000 1.202c.995 0 1.803.807 1.803 1.803a.601.601 0 101.202 0c0-.996.807-1.803 1.803-1.803a.601.601 0 100-1.202zm-2.404 1.22a2.996 2.996 0 00-.62-.619c.236-.175.445-.384.62-.62.175.236.384.445.62.62a3 3 0 00-.62.62zm-4.208-6.028a.601.601 0 00-.6-.601 1.803 1.803 0 01-1.804-1.804.601.601 0 00-1.202 0c0 .996-.807 1.804-1.803 1.804a.601.601 0 000 1.202c.996 0 1.803.807 1.803 1.803a.601.601 0 001.202 0c0-.996.808-1.803 1.803-1.803.332 0 .601-.27.601-.601zm-3.005.62a2.994 2.994 0 00-.62-.62c.236-.175.445-.384.62-.62.175.236.384.445.62.62a2.997 2.997 0 00-.62.62zM7.235 24.644h1.202v1.202H7.235v-1.202zm-6.01 8.415h1.202v1.202H1.225v-1.202zm34.26-1.803a1.803 1.803 0 10-3.606 0 1.803 1.803 0 003.606 0zm-2.404 0a.601.601 0 111.202 0 .601.601 0 01-1.202 0zM18.055 4.207a2.404 2.404 0 10-4.81 0 2.404 2.404 0 004.81 0zm-3.607 0a1.202 1.202 0 112.405 0 1.202 1.202 0 01-2.405 0zm7.213-1.202h1.202v1.202h-1.202V3.005zm2.404 22.24h1.203v1.202h-1.203v-1.202zm3.607 7.814h1.202v1.202h-1.202v-1.202zM7.235 15.628h1.202v1.202H7.235v-1.202zm-4.808.054l1.202-.108c-.003-.029-.24-2.89 1.343-4.629a4.48 4.48 0 013.466-1.328V8.415a5.626 5.626 0 00-4.355 1.722c-1.94 2.125-1.666 5.407-1.656 5.545zm21.638-7.267v1.202c.301 0 7.306.128 8.422 8.495l1.191-.16c-1.258-9.427-9.529-9.537-9.613-9.537z" fill="#3D6AEB"/></symbol><symbol id="icon-personal" viewBox="0 0 41 37"><path d="M19.109 8.19h-.602a.602.602 0 000 1.204h.602a.602.602 0 100-1.203z" fill="#3D6AEB"/><path d="M36.404 5.41a.601.601 0 101.202 0c0-.996.808-1.804 1.804-1.804a.601.601 0 000-1.202A1.803 1.803 0 0137.606.601a.601.601 0 00-1.202 0c0 .996-.807 1.803-1.803 1.803a.601.601 0 100 1.202c.996 0 1.803.808 1.803 1.804zm.601-3.024c.175.235.384.444.62.62a2.997 2.997 0 00-.62.62 2.997 2.997 0 00-.62-.62c.236-.176.445-.385.62-.62z" fill="#F25929"/><path d="M30.915 18.43a7.258 7.258 0 00-1.019-1.109l-.402-11.722a5.413 5.413 0 00-5.41-5.228h-1.967a6.022 6.022 0 00-6.015 6.015.6.6 0 00.192.44l-.78 3.645a.602.602 0 00.588.727h.749l1.078 3.775a.601.601 0 00.678.428l2.076-.346-.267 1.069a10.109 10.109 0 00-4.57 2.786l.579-2.314a2.509 2.509 0 00-.788-2.492 2.305 2.305 0 00-1.074-2.365 3.114 3.114 0 00-2.672-.249v-.642a2.657 2.657 0 00-3.96-2.315 3.946 3.946 0 00-5.753 1.942L.803 14.051a3.355 3.355 0 001.22 3.976l-.06.256a1.853 1.853 0 002.009 2.262l-.08.32a1.933 1.933 0 001.795 2.403l-.674 1.462-2.368.948a.602.602 0 00-.348.368l-1.203 3.61a.601.601 0 00.334.742l.813.349L0 35.609l1.093.503 2.254-4.891 2.292.982a.282.282 0 00.008.003l10.226 4.21a.6.6 0 00.787-.332l.948-2.37.386 2.83 1.192-.163-1.633-11.968a4.2 4.2 0 01.723-2.984l1.074-1.535-.218.764a.602.602 0 00.579.766h3.609a.602.602 0 00.538-.332l1.266-2.533v7.677a.601.601 0 00.602.602h.057l.522 5.222-2.846 3.416.924.77 3.008-3.61a.6.6 0 00.136-.444l-.535-5.354h3.546v5.766l-2.832 2.831.851.851 3.008-3.008a.602.602 0 00.176-.425v-6.015a.602.602 0 00.602-.602v-3.498a7.167 7.167 0 00-1.428-4.309zm.225 4.308v2.897h-4.813v-8.816l.526.158a6.015 6.015 0 014.287 5.761zM22.117 1.574h1.967a4.195 4.195 0 014.208 4.066l.37 10.806a7.25 7.25 0 00-1.464-.622l-1.05-.315-1.545-3.089 1.881-3.29a1.573 1.573 0 00-.255-1.888l-.015-.015a1.532 1.532 0 00-1.09-.452 1.533 1.533 0 00-1.09.452l-.65.65-1.267-1.691V3.379h-1.203v2.406h-3.572a4.82 4.82 0 014.775-4.21zm.099 13.225a.6.6 0 00.401-.26l.401-.6-1-.668-.257.384-2.823.47-1.055-3.693a.602.602 0 00-.578-.437h-.46l.645-3.007h3.724l1.625 2.165a.601.601 0 00.906.065l1.14-1.14a.338.338 0 01.478-.001l.015.015a.362.362 0 01.062.44l-2.041 3.571a.603.603 0 00-.016.568l1.425 2.848-3.098.387.267-1.067.239-.04zm-8.52 12.64h.399l-.8 2.725-5.013-1.379V27.44a.602.602 0 00-.12-.36l-1.8-2.4.63-1.368a1.889 1.889 0 002.51.195 1.626 1.626 0 001.118.496 1.648 1.648 0 001.621-1.126l.092-.275c.314.242.7.374 1.096.374.028 0 .055-.002.082-.003a10.152 10.152 0 00-.417 2.885v.98a.602.602 0 00.601.602zm-.887-10.597a2.092 2.092 0 01-2.454.435L7.95 16.074a2.091 2.091 0 01-1.125-2.225l5.985 2.993zm2.109-1.766a1.3 1.3 0 01.34 1.228l-1.255 5.02a.592.592 0 11-1.134-.33l1.397-4.192a.6.6 0 00-.302-.728l-1.425-.713.799-.48a1.291 1.291 0 011.58.195zM7.729 21.71l.48-1.04.043-.093.362.181a.6.6 0 00.807-.269l.054-.108-.45 1.786a.69.69 0 11-1.296-.457zm2.518.536l.894-3.55c.44.019.88-.05 1.293-.204L11.1 22.496a.444.444 0 01-.853-.25zM7.95 17.419l1.33.665-.665 1.33-1.33-.665.665-1.33zm5.995-4.648a1.09 1.09 0 01.512.764 2.491 2.491 0 00-1.737.315l-1.456.873-.799-.4 1.092-1.2a1.91 1.91 0 012.388-.352zm-3.256-1.923v1.442l-.023.024-.585.643a3.39 3.39 0 00-.262-1.13l-.027-.292a3.914 3.914 0 00-.849-2.11 1.448 1.448 0 011.746 1.423zm-8.763 3.635l1.376-3.576a2.744 2.744 0 014.458-.995 3.409 3.409 0 00-4.403 2.452l-1.022 4.344a2.158 2.158 0 01-.409-2.225zm1.682 4.852a.65.65 0 01-.473-.776l1.393-5.92a2.208 2.208 0 014.356.506v.389l-2.137-1.069a.601.601 0 00-.807.269c-.206.411-.323.86-.345 1.32l-1.202 4.81a.648.648 0 01-.785.47zm1.452 1.822l.5-2.001.73-2.924c.176.226.38.428.609.6l-.959 1.917a.601.601 0 00.27.807l.966.484-.538 1.167-.2.435a.734.734 0 01-1.378-.485zm-1.84 5.928l1.32.66-.782 2.343-1.346-.577.808-2.426zm12.55 7.988l-9.66-3.977-1.242-.533.978-2.933a.602.602 0 00-.302-.729l-1.208-.604 1.336-.534L7.08 27.64v1.604a.602.602 0 00.442.58l6.024 1.656.003.001 1.31.355.315-1.162-.718-.194.894-3.04h1.403l.526 3.859-1.51 3.774zm1.52-14.333a5.399 5.399 0 00-.93 3.836l.227 1.661h-2.291v-.379a8.914 8.914 0 015.036-8.036L17.29 20.74zm5.657-.518h-2.44l.875-3.061 3.302-.413-1.737 3.474z" fill="#3D6AEB"/></symbol><symbol id="icon-vacuum" viewBox="0 0 36 36"><path d="M7.455 23.928v5.865a.526.526 0 00.526.526h10.226a.526.526 0 00.527-.526v-5.865a.527.527 0 00-.527-.526H7.981a.528.528 0 00-.526.526zm1.053.526h9.173v4.812H8.508v-4.812z" fill="#2C47F0"/><path d="M9.485 10.126a.526.526 0 000 1.052h7.218a.526.526 0 000-1.052H9.485zm0 3.408h7.218a.526.526 0 100-1.052H9.485a.526.526 0 100 1.052zm0 2.356h7.218a.528.528 0 000-1.053H9.485a.526.526 0 000 1.053z" fill="#E9663D"/><path d="M35.412 5.81a.527.527 0 00-.486-.059l-2.57.98h-1.154c-.697-1.74-2.47-4.413-6.892-5.254a16.029 16.029 0 00-7.588.356V.526A.527.527 0 0016.196 0H9.992a.527.527 0 00-.526.526V5.32h-.842a4.13 4.13 0 00-4.13 3.926l-.827 16.13A2.328 2.328 0 000 27.283v6.026a2.33 2.33 0 003.966 1.659 2.33 2.33 0 001.628.672h14.999a2.33 2.33 0 001.628-.673 2.329 2.329 0 003.967-1.658v-6.026a2.327 2.327 0 00-3.668-1.906l-.824-16.132a4.136 4.136 0 00-4.132-3.925h-.842V2.948c2.389-.76 4.93-.91 7.39-.437 3.615.688 5.228 2.716 5.94 4.22h-.306a.527.527 0 00-.527.527v6.05a.525.525 0 00.451.52v16.481a.525.525 0 00-.45.497l-.181 4.285a.527.527 0 00.526.548h3.067a.529.529 0 00.527-.547l-.18-4.285a.525.525 0 00-.452-.497V13.828a.525.525 0 00.451-.52V9.295l2.209-.312a.527.527 0 00.45-.521V6.243a.527.527 0 00-.225-.434zM10.52 1.052h5.15v1.16c-1.764.734-3.016 1.821-3.587 3.107h-1.564V1.053zM2.33 34.587a1.28 1.28 0 01-1.278-1.278v-6.026a1.278 1.278 0 112.556 0v6.026a1.28 1.28 0 01-1.278 1.278zm21.526-8.583a1.28 1.28 0 011.278 1.279v6.026a1.278 1.278 0 01-2.556 0v-6.026a1.28 1.28 0 011.278-1.279zM20.645 9.3l.904 17.68a2.37 2.37 0 00-.022.304v6.026c0 .247.04.491.117.725a1.276 1.276 0 01-1.05.553h-15a1.28 1.28 0 01-1.05-.553c.078-.234.117-.478.118-.725v-6.026a2.396 2.396 0 00-.023-.306L5.545 9.3a3.079 3.079 0 013.078-2.926h8.941a3.084 3.084 0 013.08 2.926zM13.27 5.32a5.585 5.585 0 012.398-1.956V5.32H13.27zm17.452 24.982V13.835h.752V30.3h-.752zm1.203-21.466v3.946H30.27V7.784h1.655v1.052zm-1.811 25.75l.135-3.232h1.698l.135 3.232h-1.968zm4.472-26.582l-1.608.227v-.61l1.608-.614v.997z" fill="#3D6AEB"/></symbol><symbol id="icon-window" viewBox="0 0 36 36"><path d="M35.486 26.166l-2.781-2.782V.526A.527.527 0 0032.178 0H.526A.527.527 0 000 .526v34.588a.527.527 0 00.526.526h31.652a.525.525 0 00.527-.526v-7.33l.582.582a.526.526 0 00.744 0l1.455-1.456a.526.526 0 000-.744zM12.742 12.79l3.083 3.083v18.714h-4.253c-.147-7.122-3.251-12.507-6.223-14.662v-1.277c3.987-4.123 4.704-12.554 4.749-17.594h5.727v13.33l-2.339-2.339a.526.526 0 10-.744.745zM9.045 1.053c-.042 4.836-.708 12.86-4.357 16.757H1.053V1.053h7.992zm-7.992 17.81h3.243v.905H1.053v-.905zm0 1.958h3.735c2.342 1.756 5.577 6.646 5.731 13.766H1.053V20.821zm30.599 13.766H16.878V16.926l2.025 2.023a.526.526 0 00.744-.744l-2.767-2.767V1.053h14.772V22.33l-3.96-3.958a1.015 1.015 0 01.002-1.437l2.793-2.793a.524.524 0 000-.745l-1.346-1.346a.527.527 0 00-.744 0l-9.224 9.224a.528.528 0 000 .745l1.347 1.346a.526.526 0 00.744 0l2.795-2.795a1.017 1.017 0 011.435 0l6.158 6.159v7.856zm-5.98-15.158a2.064 2.064 0 00-2.358.4L20.89 22.25l-.601-.602 8.478-8.48.601.601-2.421 2.421a2.063 2.063 0 00-.401 2.36l-.876.878zm7.987 7.82L26.5 20.09l.71-.71 4.593 4.592.008.008 2.559 2.559-.712.709z" fill="#3D6AEB"/></symbol></svg>